<svg width="354.32729492187497px" height="124.80000305175781px" xmlns="http://www.w3.org/2000/svg" viewBox="72.83635253906252 12.599998474121094 354.32729492187497 124.80000305175781" style="background: rgba(0, 0, 0, 0);" preserveAspectRatio="xMidYMid"><defs><filter id="editing-jagged" x="-100%" y="-100%" width="300%" height="300%"><feTurbulence result="turb" baseFrequency="0.02" numOctaves="1" seed="1"></feTurbulence><feDisplacementMap in="SourceGraphic" in2="turb" scale="4"></feDisplacementMap></filter></defs><g filter="url(#editing-jagged)"><g transform="translate(126.93336081504822, 99.41999626159668)"><path d="M35.57-13.66L35.57-13.66L35.57-13.66Q37.29-12.41 37.29-9.74L37.29-9.74L37.29-9.74Q37.29-7.06 36.14-5.18L36.14-5.18L36.14-5.18Q34.98-3.30 32.74-1.85L32.74-1.85L32.74-1.85Q27.92 1.25 19.50 1.25L19.50 1.25L19.50 1.25Q11.09 1.25 6.50-3.14L6.50-3.14L6.50-3.14Q1.91-7.52 1.91-15.31L1.91-15.31L1.91-15.31Q1.91-26.33 7.66-34.72L7.66-34.72L7.66-34.72Q12.01-40.92 19.80-43.56L19.80-43.56L19.80-43.56Q23.83-44.88 27.79-44.88L27.79-44.88L27.79-44.88Q31.75-44.88 34.19-44.35L34.19-44.35L34.19-44.35Q36.63-43.82 38.48-42.77L38.48-42.77L38.48-42.77Q42.50-40.46 42.50-36.76L42.50-36.76L42.50-36.76Q42.50-33.40 39.34-30.89L39.34-30.89L39.34-30.89Q36.43-28.64 34.06-28.64L34.06-28.64L34.06-28.64Q31.68-28.64 30.69-28.97L30.69-28.97L30.69-28.97Q30.95-31.35 30.95-32.90L30.95-32.90L30.95-32.90Q30.95-34.45 30.89-35.57L30.89-35.57L30.89-35.57Q30.82-36.70 30.49-37.75L30.49-37.75L30.49-37.75Q29.83-40.19 27.82-40.19L27.82-40.19L27.82-40.19Q25.81-40.19 23.79-38.31L23.79-38.31L23.79-38.31Q21.78-36.43 20.06-33.26L20.06-33.26L20.06-33.26Q16.17-26.07 16.17-17.56L16.17-17.56L16.17-17.56Q16.17-13.46 18.48-11.12L18.48-11.12L18.48-11.12Q20.79-8.78 25.74-8.78L25.74-8.78L25.74-8.78Q29.44-8.78 32.93-11.22L32.93-11.22L32.93-11.22Q34.45-12.28 35.57-13.66ZM75.97-7.33L75.97-7.33L75.97-7.33Q75.97-4.42 78.94-3.56L78.94-3.56L78.94-3.56Q78.21-1.12 75.37 0.20L75.37 0.20L75.37 0.20Q73.00 1.32 70.39 1.32L70.39 1.32L70.39 1.32Q67.78 1.32 66.43 0.63L66.43 0.63L66.43 0.63Q65.08-0.07 64.35-1.19L64.35-1.19L64.35-1.19Q63.16-2.90 63.16-6.14L63.16-6.14L63.16-6.14Q63.16-8.05 64.22-13.33L64.22-13.33L65.14-18.35L65.14-18.35Q66.26-24.09 66.26-26.20L66.26-26.20L66.26-26.20Q66.26-29.90 64.22-29.90L64.22-29.90L64.22-29.90Q61.64-29.90 59.99-26.14L59.99-26.14L59.99-26.14Q59.33-24.68 58.87-22.51L58.87-22.51L54.38 0L41.12 1.32L50.42-46.20L63.69-47.52L63.16-44.88L63.16-44.88Q61.31-34.72 59.73-31.28L59.73-31.28L59.73-31.28Q63.43-34.98 70.22-34.98L70.22-34.98L70.22-34.98Q77.42-34.98 78.74-30.23L78.74-30.23L78.74-30.23Q79.20-28.71 79.20-27.39L79.20-27.39L79.20-27.39Q79.20-26.07 79.10-25.05L79.10-25.05L79.10-25.05Q79.00-24.02 78.67-22.18L78.67-22.18L77.81-17.42L76.30-9.97L76.30-9.97Q75.97-8.45 75.97-7.33ZM87.15-1.98L87.15-1.98L87.15-1.98Q85.60-3.70 84.91-6.40L84.91-6.40L84.91-6.40Q84.22-9.11 84.22-13.53L84.22-13.53L84.22-13.53Q84.22-17.95 85.73-21.98L85.73-21.98L85.73-21.98Q87.25-26.00 90.02-28.91L90.02-28.91L90.02-28.91Q95.70-34.98 105.07-34.98L105.07-34.98L105.07-34.98Q108.44-34.98 110.88-33.86L110.88-33.86L122.17-34.98L117.28-9.24L117.28-9.24Q117.08-8.45 117.08-7.00L117.08-7.00L117.08-7.00Q117.08-5.54 117.97-4.62L117.97-4.62L117.97-4.62Q118.87-3.70 120.19-3.56L120.19-3.56L120.19-3.56Q119.53-1.32 117.12 0L117.12 0L117.12 0Q114.71 1.32 112.00 1.32L112.00 1.32L112.00 1.32Q109.30 1.32 107.48 0.30L107.48 0.30L107.48 0.30Q105.67-0.73 105.14-2.44L105.14-2.44L105.14-2.44Q104.08-0.79 101.84 0.26L101.84 0.26L101.84 0.26Q99.59 1.32 96.59 1.32L96.59 1.32L96.59 1.32Q93.59 1.32 91.15 0.53L91.15 0.53L91.15 0.53Q88.70-0.26 87.15-1.98ZM101.08-28.78L101.08-28.78L101.08-28.78Q100.32-27.59 99.66-25.58L99.66-25.58L99.66-25.58Q99-23.56 97.91-18.18L97.91-18.18L97.91-18.18Q96.82-12.80 96.82-8.98L96.82-8.98L96.82-8.98Q96.82-5.15 97.42-4.03L97.42-4.03L97.42-4.03Q98.01-2.90 99.07-2.90L99.07-2.90L99.07-2.90Q101.18-2.90 102.73-4.92L102.73-4.92L102.73-4.92Q104.28-6.93 104.87-10.49L104.87-10.49L108.37-29.83L108.37-29.83Q106.99-31.02 105.37-31.02L105.37-31.02L105.37-31.02Q103.75-31.02 102.80-30.49L102.80-30.49L102.80-30.49Q101.84-29.96 101.08-28.78ZM126.79-6.60L126.79-6.60L126.79-6.60Q126.79-8.38 127.71-12.87L127.71-12.87L131.21-30.69L127.31-30.69L127.58-32.67L127.58-32.67Q135.50-35.05 143.15-40.85L143.15-40.85L146.32-40.85L144.74-33.66L149.89-33.66L149.29-30.69L144.21-30.69L140.84-12.87L140.84-12.87Q139.99-8.78 139.99-7.39L139.99-7.39L139.99-7.39Q139.99-4.22 142.76-3.56L142.76-3.56L142.76-3.56Q142.10-1.32 139.72 0L139.72 0L139.72 0Q137.35 1.32 133.98 1.32L133.98 1.32L133.98 1.32Q130.61 1.32 128.70-0.79L128.70-0.79L128.70-0.79Q126.79-2.90 126.79-6.60ZM192.13 1.32L192.13 1.32L192.13 1.32Q183.68 1.32 182.89-10.69L182.89-10.69L171.53-10.69L171.53-10.69Q170.21-7.66 169.29-5.02L169.29-5.02L167.57 0L158.33 0L179.12-43.56L193.31-43.56L196.09-11.48L196.09-11.48Q196.75-4.55 199.39-2.51L199.39-2.51L199.39-2.51Q197.47 1.32 192.13 1.32ZM177.21-23.89L173.58-15.51L182.69-15.51L181.90-32.47L181.90-34.25L177.21-23.89ZM218.99-3.63L218.99-3.63L218.99-3.63Q216.94 1.32 210.41 1.32L210.41 1.32L210.41 1.32Q207.11 1.32 205.00-0.99L205.00-0.99L205.00-0.99Q203.28-2.90 203.28-5.08L203.28-5.08L203.28-5.08Q203.28-10.03 205.59-20.86L205.59-20.86L210.41-46.20L223.81-47.52L217.40-14.12L217.40-14.12Q216.28-9.24 216.28-7.52L216.28-7.52L216.28-7.52Q216.28-3.76 218.99-3.63ZM240.37-3.63L240.37-3.63L240.37-3.63Q238.33 1.32 231.79 1.32L231.79 1.32L231.79 1.32Q228.49 1.32 226.38-0.99L226.38-0.99L226.38-0.99Q224.66-2.90 224.66-5.08L224.66-5.08L224.66-5.08Q224.66-10.03 226.97-20.86L226.97-20.86L231.79-46.20L245.19-47.52L238.79-14.12L238.79-14.12Q237.67-9.24 237.67-7.52L237.67-7.52L237.67-7.52Q237.67-3.76 240.37-3.63Z" fill="#444"></path></g></g><style>text {
  font-size: 64px;
  font-family: Arial Black;
  dominant-baseline: central;
  text-anchor: middle;
}</style></svg>